# xmcd
#
# Track frame offsets:
#  150
#  12529
#  21796
#  32235
#  41861
#  53955
#  64934
#  76608
#  88372
#  97083
#  107411
#  119138
#  130490
#  142826
#  151192
#  161086
#  169364
#  178255
#  188249
#  198471
#  206169
#  221306
#  230028
#  243157
#  253343
#  265468
#  275959
#  287642
#
# Disc length: 4020 seconds
#
# Revision: 0
# Processed by: cddbd v1.5.1PL2 Copyright (c) Steve Scherf et al.
# Submitted via: Collectorz.com_Music_Collector 6.9
#
DISCID=b70fb21c
DTITLE=Gene and Eunice - Go On Ko Ko Mo! - Gene and Eunice
DYEAR=2001
DGENRE=Blues - New Orleans R&B
TTITLE0=Ko Ko Mo
TTITLE1=You And Me
TTITLE2=This Is My Story
TTITLE3=Move It Over, Baby
TTITLE4=Have You Changed Your Mind?
TTITLE5=I Gotta Go Home
TTITLE6=Hootchy Kootchy
TTITLE7=I'm So In Love With You
TTITLE8=Let's Get Together
TTITLE9=Hi Diddle Diddle
TTITLE10=Bom Bom Lulu
TTITLE11=The Vow
TTITLE12=Double Double Doo
TTITLE13=Don't Treat Me This Way
TTITLE14=The Angels Gave You To Me
TTITLE15=Poco Loco
TTITLE16=Go On Kokomo
TTITLE17=Tell Me That You Love Me
TTITLE18=Flim Flam
TTITLE19=Move It Over, Baby
TTITLE20=This Is My Story
TTITLE21=I Know A Girl
TTITLE22=Can We Forget It?  ( Colder By The Minute )
TTITLE23=Can We Forget It? ( Colder By The Minute )
TTITLE24=Gene Forrets - Aching And Crying
TTITLE25=Eunice Levy and The Four Feathers - I'll Never Forget You
TTITLE26=Eunice Levy - Send Me Someone
TTITLE27=Eunice Levy - Only Lovers
EXTD=
EXTT0=
EXTT1=
EXTT2=
EXTT3=
EXTT4=
EXTT5=
EXTT6=
EXTT7=
EXTT8=
EXTT9=
EXTT10=
EXTT11=
EXTT12=
EXTT13=
EXTT14=
EXTT15=
EXTT16=
EXTT17=
EXTT18=
EXTT19=
EXTT20=
EXTT21=
EXTT22=
EXTT23=
EXTT24=
EXTT25=
EXTT26=
EXTT27=
PLAYORDER=
